# Blender v2.80 (sub 57) OBJ File: ''
# www.blender.org
mtllib trunk.mtl
o Cube
v 0.101238 0.202708 -0.262031
v 0.092385 -0.197125 -0.269456
v 0.270111 0.192238 0.100422
v 0.261258 -0.207595 0.092997
v -0.261258 0.207595 -0.092997
v -0.270111 -0.192238 -0.100422
v -0.092385 0.197125 0.269456
v -0.101238 -0.202708 0.262031
v -0.294906 0.107333 0.028715
v -0.299389 -0.095171 0.024954
v -0.209376 0.102030 0.212287
v -0.213860 -0.100474 0.208526
v -0.361001 0.108224 0.059536
v -0.365484 -0.094280 0.055775
v -0.275471 0.102921 0.243107
v -0.279955 -0.099583 0.239347
v -0.378588 0.102087 0.074446
v -0.382795 -0.087929 0.070918
v -0.298333 0.097111 0.246698
v -0.302540 -0.092905 0.243169
v 0.013993 0.127689 -0.264818
v 0.008547 -0.118268 -0.269386
v -0.208996 0.130695 -0.160837
v -0.214442 -0.115262 -0.165404
v -0.019574 0.129770 -0.336864
v -0.025020 -0.116187 -0.341431
v -0.242563 0.132777 -0.232882
v -0.248009 -0.113181 -0.237450
v -0.060126 0.096992 -0.342956
v -0.064077 -0.081443 -0.346270
v -0.221899 0.099173 -0.267521
v -0.225850 -0.079262 -0.270834
v 0.174971 0.129734 -0.220642
v 0.169241 -0.129071 -0.225448
v 0.284280 0.122957 0.013968
v 0.278550 -0.135848 0.009162
v 0.257770 0.128618 -0.259252
v 0.252040 -0.130188 -0.264058
v 0.367079 0.121841 -0.024642
v 0.361349 -0.136965 -0.029448
v 0.305863 0.080634 -0.231849
v 0.302187 -0.085429 -0.234933
v 0.376002 0.076286 -0.081311
v 0.372325 -0.089777 -0.084395
v 0.224298 0.106066 0.206249
v 0.219216 -0.123467 0.201986
v 0.016200 0.108871 0.303287
v 0.011118 -0.120662 0.299024
v 0.261819 0.103740 0.286780
v 0.256737 -0.125793 0.282518
v 0.053721 0.106545 0.383818
v 0.048639 -0.122988 0.379556
v 0.209442 0.031903 0.346570
v 0.207540 -0.053978 0.344975
v 0.131580 0.032953 0.382878
v 0.129678 -0.052929 0.381283
v 0.070498 0.266025 -0.172556
v 0.183271 0.259033 0.069487
v -0.171573 0.269289 -0.059676
v -0.058801 0.262297 0.182367
v 0.036526 0.375127 -0.070561
v 0.085783 0.372073 0.035160
v -0.069208 0.376552 -0.021257
v -0.019951 0.373498 0.084464
v 0.040475 0.553522 -0.067248
v 0.089733 0.550468 0.038473
v -0.065258 0.554947 -0.017944
v -0.016001 0.551893 0.087777
v 0.024416 0.583421 -0.020755
v 0.044487 0.582176 0.022322
v -0.018667 0.584002 -0.000666
v 0.001404 0.582757 0.042412
v 0.047933 -0.294500 -0.155067
v 0.142980 -0.300393 0.048933
v -0.156090 -0.291749 -0.059929
v -0.061044 -0.297642 0.144070
v 0.041677 -0.577073 -0.160314
v 0.136724 -0.582966 0.043685
v -0.162347 -0.574323 -0.065177
v -0.067300 -0.580216 0.138823
v 0.008154 -0.613441 -0.071105
v 0.046092 -0.615793 0.010323
v -0.073284 -0.612343 -0.033130
v -0.035345 -0.614695 0.048298
vt 0.625000 0.250000
vt 0.375000 0.250000
vt 0.375000 0.250000
vt 0.625000 0.250000
vt 0.625000 0.500000
vt 0.375000 0.500000
vt 0.375000 0.500000
vt 0.625000 0.500000
vt 0.375000 0.750000
vt 0.375000 1.000000
vt 0.375000 1.000000
vt 0.375000 0.750000
vt 0.625000 1.000000
vt 0.375000 1.000000
vt 0.625000 1.000000
vt 0.125000 0.500000
vt 0.375000 0.500000
vt 0.375000 0.500000
vt 0.125000 0.500000
vt 0.125000 0.500000
vt 0.375000 0.500000
vt 0.375000 0.500000
vt 0.625000 0.500000
vt 0.625000 0.500000
vt 0.375000 0.500000
vt 0.625000 0.000000
vt 0.625000 0.000000
vt 0.625000 0.250000
vt 0.875000 0.500000
vt 0.625000 0.500000
vt 0.625000 0.500000
vt 0.875000 0.500000
vt 0.875000 0.500000
vt 0.625000 0.500000
vt 0.625000 0.500000
vt 0.875000 0.500000
vt 0.375000 1.000000
vt 0.375000 0.750000
vt 0.625000 0.000000
vt 0.625000 0.250000
vt 0.375000 0.500000
vt 0.625000 0.500000
vt 0.625000 0.750000
vt 0.375000 0.750000
vt 0.375000 1.000000
vt 0.625000 0.000000
vt 0.625000 0.250000
vt 0.625000 0.500000
vt 0.875000 0.500000
vt 0.875000 0.500000
vt 0.625000 0.500000
vt 0.625000 0.750000
vt 0.375000 0.750000
vt 0.625000 0.750000
vt 0.375000 0.000000
vt 0.375000 0.000000
vt 0.625000 0.000000
vt 0.875000 0.500000
vt 0.625000 0.500000
vt 0.375000 0.750000
vt 0.625000 0.750000
vt 0.375000 0.000000
vt 0.625000 0.000000
vt 0.125000 0.500000
vt 0.375000 0.500000
vt 0.875000 0.750000
vt 0.625000 0.750000
vt 0.375000 0.750000
vt 0.375000 0.000000
vt 0.625000 0.000000
vt 0.125000 0.500000
vt 0.375000 0.500000
vt 0.375000 0.000000
vt 0.375000 0.250000
vt 0.375000 0.250000
vt 0.375000 0.000000
vt 0.625000 0.750000
vt 0.625000 1.000000
vt 0.625000 0.250000
vt 0.375000 0.250000
vt 0.375000 0.250000
vt 0.625000 0.250000
vt 0.125000 0.500000
vt 0.375000 0.500000
vt 0.375000 0.500000
vt 0.125000 0.500000
vt 0.625000 0.750000
vt 0.625000 1.000000
vt 0.375000 0.250000
vt 0.625000 0.250000
vt 0.375000 0.750000
vt 0.125000 0.750000
vt 0.625000 0.750000
vt 0.625000 1.000000
vt 0.375000 0.250000
vt 0.625000 0.250000
vt 0.375000 0.250000
vt 0.375000 0.000000
vt 0.375000 0.250000
vt 0.625000 0.250000
vt 0.625000 0.250000
vt 0.375000 0.250000
vt 0.625000 1.000000
vt 0.375000 1.000000
vt 0.625000 0.250000
vt 0.375000 0.250000
vt 0.375000 1.000000
vt 0.625000 1.000000
vt 0.625000 1.000000
vt 0.375000 1.000000
vt 0.375000 0.500000
vt 0.625000 0.500000
vt 0.625000 0.250000
vt 0.375000 0.250000
vt 0.375000 0.250000
vt 0.625000 0.250000
vt 0.625000 0.500000
vt 0.375000 0.500000
vt 0.625000 0.250000
vt 0.375000 0.250000
vt 0.625000 0.000000
vt 0.625000 0.250000
vt 0.625000 0.000000
vt 0.375000 0.000000
vt 0.625000 0.250000
vt 0.625000 0.000000
vt 0.375000 0.250000
vt 0.375000 0.000000
vt 0.375000 0.000000
vt 0.625000 0.000000
vt 0.375000 0.000000
vt 0.375000 0.250000
vt 0.625000 0.250000
vt 0.375000 0.250000
vt 0.375000 0.750000
vt 0.375000 0.750000
vt 0.375000 1.000000
vt 0.625000 0.750000
vt 0.625000 0.750000
vt 0.625000 1.000000
vt 0.625000 1.000000
vt 0.625000 0.750000
vt 0.375000 0.750000
vt 0.375000 1.000000
vn 0.3094 0.7003 0.6433
vn -0.3055 -0.0109 0.9521
vn -0.7156 -0.6232 0.3154
vn 0.2975 -0.6917 0.6581
vn 0.4934 0.0052 -0.8698
vn 0.0163 0.0182 -0.9997
vn 0.4222 -0.0262 0.9061
vn -0.6876 0.6422 0.3389
vn -0.9688 0.0260 -0.2464
vn -0.4344 -0.0071 0.9007
vn -0.6522 0.0285 -0.7575
vn -0.4222 0.0262 -0.9061
vn -0.0221 -0.9996 -0.0186
vn 0.0221 0.9996 0.0186
vn -0.9062 0.0122 0.4226
vn -0.2671 -0.9588 0.0968
vn -0.2245 0.9654 0.1325
vn 0.1605 -0.0219 0.9868
vn -0.7758 0.0289 -0.6304
vn -0.3894 -0.4133 -0.8231
vn -0.3701 0.4604 -0.8069
vn -0.8460 0.0286 -0.5324
vn 0.9062 -0.0122 -0.4226
vn -0.3668 -0.5198 -0.7716
vn -0.3428 0.5638 -0.7514
vn 0.1364 0.0154 -0.9905
vn 0.7254 -0.5897 -0.3550
vn 0.7511 0.5698 -0.3335
vn 0.9831 -0.0251 0.1813
vn 0.4989 0.0050 -0.8667
vn 0.7288 -0.5846 -0.3565
vn 0.9842 -0.0250 0.1751
vn 0.7543 0.5646 -0.3351
vn 0.2949 -0.6980 0.6525
vn 0.3249 0.6596 0.6778
vn 0.9253 -0.0275 0.3782
vn 0.3723 -0.4506 0.8114
vn 0.7688 -0.0289 0.6388
vn 0.3912 0.4033 0.8272
vn -0.0054 -0.0184 0.9998
vn -0.7360 0.5736 0.3595
vn -0.6142 0.7269 0.3072
vn 0.6460 0.7100 -0.2805
vn -0.2776 0.7366 -0.6167
vn 0.3612 0.5419 0.7589
vn -0.3362 0.5852 -0.7379
vn 0.7610 0.5535 -0.3386
vn -0.2622 0.7679 -0.5844
vn 0.6150 0.7426 -0.2651
vn -0.5818 0.7587 0.2930
vn 0.2954 0.7334 0.6123
vn -0.6855 -0.6633 0.3002
vn 0.6557 -0.6814 -0.3252
vn -0.3273 -0.6530 -0.6830
vn 0.4010 -0.8911 -0.2126
vn -0.2155 -0.8733 -0.4370
vn 0.1763 -0.8976 0.4041
vn -0.4402 -0.8797 0.1797
usemtl Material
s off
f 7/1/1 3/2/1 58/3/1 60/4/1
f 7/5/2 8/6/2 48/7/2 47/8/2
f 6/9/3 8/10/3 12/11/3 10/12/3
f 4/13/4 8/10/4 76/14/4 74/15/4
f 2/16/5 1/17/5 33/18/5 34/19/5
f 1/17/6 2/16/6 22/20/6 21/21/6
f 12/22/7 11/23/7 15/24/7 16/25/7
f 7/1/8 5/26/8 9/27/8 11/28/8
f 5/29/9 6/30/9 10/31/9 9/32/9
f 8/6/10 7/5/10 11/23/10 12/22/10
f 13/33/11 14/34/11 18/35/11 17/36/11
f 9/32/12 10/31/12 14/34/12 13/33/12
f 10/12/13 12/11/13 16/37/13 14/38/13
f 11/28/14 9/27/14 13/39/14 15/40/14
f 20/41/15 19/42/15 17/43/15 18/44/15
f 14/38/16 16/37/16 20/45/16 18/44/16
f 15/40/17 13/39/17 17/46/17 19/47/17
f 16/25/18 15/24/18 19/42/18 20/41/18
f 24/48/15 23/49/15 27/50/15 28/51/15
f 6/30/19 5/29/19 23/49/19 24/48/19
f 2/52/20 6/9/20 24/53/20 22/54/20
f 5/26/21 1/55/21 21/56/21 23/57/21
f 28/51/22 27/50/22 31/58/22 32/59/22
f 22/54/13 24/53/13 28/60/13 26/61/13
f 23/57/14 21/56/14 25/62/14 27/63/14
f 21/21/23 22/20/23 26/64/23 25/65/23
f 32/59/12 31/58/12 29/66/12 30/67/12
f 26/61/24 28/60/24 32/68/24 30/67/24
f 27/63/25 25/62/25 29/69/25 31/70/25
f 25/65/26 26/64/26 30/71/26 29/72/26
f 33/73/14 35/74/14 39/75/14 37/76/14
f 4/13/27 2/52/27 34/77/27 36/78/27
f 1/55/28 3/2/28 35/74/28 33/73/28
f 3/79/29 4/80/29 36/81/29 35/82/29
f 38/83/30 37/84/30 41/85/30 42/86/30
f 34/19/12 33/18/12 37/84/12 38/83/12
f 36/78/13 34/77/13 38/87/13 40/88/13
f 35/82/7 36/81/7 40/89/7 39/90/7
f 42/86/23 41/85/23 43/91/23 44/92/23
f 40/88/31 38/87/31 42/93/31 44/94/31
f 39/90/32 40/89/32 44/95/32 43/96/32
f 37/76/33 39/75/33 43/97/33 41/98/33
f 45/99/14 47/100/14 51/101/14 49/102/14
f 8/10/34 4/13/34 46/103/34 48/104/34
f 3/2/35 7/1/35 47/100/35 45/99/35
f 4/80/36 3/79/36 45/105/36 46/106/36
f 52/107/37 50/108/37 54/109/37 56/110/37
f 47/8/15 48/7/15 52/111/15 51/112/15
f 48/104/13 46/103/13 50/108/13 52/107/13
f 46/106/23 45/105/23 49/113/23 50/114/23
f 54/115/7 53/116/7 55/117/7 56/118/7
f 50/114/38 49/113/38 53/116/38 54/115/38
f 49/102/39 51/101/39 55/119/39 53/120/39
f 51/112/40 52/111/40 56/118/40 55/117/40
f 59/121/41 60/4/41 64/122/41 63/123/41
f 5/26/42 7/1/42 60/4/42 59/121/42
f 3/2/43 1/55/43 57/124/43 58/3/43
f 1/55/44 5/26/44 59/121/44 57/124/44
f 63/123/15 64/122/15 68/125/15 67/126/15
f 60/4/45 58/3/45 62/127/45 64/122/45
f 57/124/46 59/121/46 63/123/46 61/128/46
f 58/3/47 57/124/47 61/128/47 62/127/47
f 65/129/48 67/126/48 71/130/48 69/131/48
f 64/122/7 62/127/7 66/132/7 68/125/7
f 61/128/12 63/123/12 67/126/12 65/129/12
f 62/127/23 61/128/23 65/129/23 66/132/23
f 69/131/14 71/130/14 72/133/14 70/134/14
f 66/132/49 65/129/49 69/131/49 70/134/49
f 67/126/50 68/125/50 72/133/50 71/130/50
f 68/125/51 66/132/51 70/134/51 72/133/51
f 76/14/15 75/135/15 79/136/15 80/137/15
f 8/10/52 6/9/52 75/135/52 76/14/52
f 2/52/53 4/13/53 74/15/53 73/138/53
f 6/9/54 2/52/54 73/138/54 75/135/54
f 77/139/55 78/140/55 82/141/55 81/142/55
f 73/138/23 74/15/23 78/140/23 77/139/23
f 75/135/12 73/138/12 77/139/12 79/136/12
f 74/15/7 76/14/7 80/137/7 78/140/7
f 83/143/13 81/142/13 82/141/13 84/144/13
f 79/136/56 77/139/56 81/142/56 83/143/56
f 78/140/57 80/137/57 84/144/57 82/141/57
f 80/137/58 79/136/58 83/143/58 84/144/58
